<?xml version="1.0" encoding="utf-8"?>
<!-- Generator: Adobe Illustrator 19.2.1, SVG Export Plug-In . SVG Version: 6.00 Build 0)  -->
<svg version="1.1" id="Layer_1" xmlns="http://www.w3.org/2000/svg" xmlns:xlink="http://www.w3.org/1999/xlink" x="0px" y="0px"
	 viewBox="0 0 960 560" style="enable-background:new 0 0 960 560;" xml:space="preserve">
<style type="text/css">
	.st0{fill:none;stroke:#000000;stroke-miterlimit:10;}
</style>
<path class="st0" d="M359.3,74c0.1,0,0.2,0,0.4,0c5.2-0.4,16.2-0.8,29.5,2c0,0,10.5,2.3,19.3,6.2c28.2,12.6,42.9,47.3,45.9,54.1
	c5.3,12.1,11.1,30.1,11.5,68c0.2,22-1.4,45.8-14.8,111.5c-17,83.5-28.4,114.6-48.4,125.4c-15,8.1-31.1,9.8-31.1,9.8
	s-14.1,1.5-27-1.6c-29.1-7-45.4-75-53.3-110.7c-29.4-132.2-25.6-188.7-7.4-218.9c9.7-16.1,23-26.2,23-26.2
	C328.6,77,353.7,74.4,359.3,74z"/>
<path class="st0" d="M370.4,450.4c-2.6-125.2-5.2-250.4-7.8-375.6"/>
<path class="st0" d="M396.5,78.1c5.8,66.1,8.2,121.8,9.2,164c1.5,62.6-0.2,93.3-4.1,124c-4.4,34.3-10.8,62.5-16,82.1"/>
<path class="st0" d="M326.8,85.3c-2.8,58.1-1.7,108.7,0.7,149.7c1.8,30,4.8,77.6,15.7,139.3c5.5,31,11.4,57.1,16.4,76.9"/>
<path class="st0" d="M435.8,105.8c1,20.5,2.2,50.7,2.2,87.4c0.1,63.8,0.1,100.8-8.5,146.5c-4.7,25.2-13.7,61.7-32.3,104.4"/>
<path class="st0" d="M288.4,114.3c-2,49.5-0.1,112.8,13.9,184.6c11.6,59.8,28.6,110.6,45.3,151"/>
</svg>
