<svg id="Layer_1" data-name="Layer 1" xmlns="http://www.w3.org/2000/svg" viewBox="0 0 344 251"><defs><style>.cls-1,.cls-2{fill:none;stroke:#000;stroke-miterlimit:10;}.cls-1{stroke-width:4px;}.cls-2{stroke-width:3px;}</style></defs><title>computer</title><path class="cls-1" d="M530,148v212.1c0,2.23-1.31,4.88-3.65,4.88H194.69c-2.33,0-4.69-2.65-4.69-4.88V148c0-2.24,2.36-4,4.69-4H526.35C528.69,144,530,145.78,530,148Z" transform="translate(-188 -142)"/><path class="cls-2" d="M455.5,382.33v4.61a4.81,4.81,0,0,1-4.56,4.56H270.1a4.85,4.85,0,0,1-4.6-4.56v-4.61c0-2.33,2.27-3.83,4.6-3.83l46.5,0-0.1-14h90v14h44.44Z" transform="translate(-188 -142)"/></svg>